[b]POSTER.



 º     Plot.     º
 
Since his triumphant rise to power in the original blockbuster The Scorpion King, 
Mathayus' kingdom has fallen and he's lost his queen to plague. Now an assassin 
for hire, he must defend a kingdom from an evil tyrant and his ghost warriors 
for the chance to regain the power and glory he once knew. 


 º   General.    º

Complete name       : The.Scorpion.King.3.Battle.For.Redemption.2012.BRRip.XviD- {RedDragon}
Format              : MPEG-4
Format profile      : Base Media / Version 2
Codec ID            : mp42
File size           : 699 MiB
Duration            : 1h 45mn
Overall bit rate    : 929 Kbps
Encoded date        : UTC 2011-12-25 04:07:47
Tagged date         : UTC 2011-12-25 04:16:10
IMDb                : http://www.imdb.com/title/tt1781896/
IMDB Rating         : 6.2/10


 º    Video.     º
 

ID                               : 1
Format                           : MPEG-4 Visual
Format profile                   : Simple@L1
Format settings, BVOP            : No
Format settings, QPel            : No
Format settings, GMC             : No warppoints
Format settings, Matrix          : Default (H.263)
Codec ID                         : 20
Duration                         : 1h 45mn
Bit rate mode                    : Variable
Bit rate                         : 766 Kbps
Maximum bit rate                 : 2 797 Kbps
Width                            : 720 pixels
Height                           : 400 pixels
Display aspect ratio             : 16:9
Frame rate mode                  : Variable
Frame rate                       : 23.976 fps
Minimum frame rate               : 23.974 fps
Maximum frame rate               : 23.981 fps
Color space                      : YUV
Chroma subsampling               : 4:2:0
Bit depth                        : 8 bits
Scan type                        : Progressive
Bits/(Pixel*Frame)               : 0.111
Stream size                      : 576 MiB (82%)
Writing library                  : Lavc52.94.3
Encoded date                     : UTC 2011-12-25 04:07:47
Tagged date                      : UTC 2011-12-25 04:16:10


 º    Audio.     º
 
 
ID                               : 2
Format                           : AAC
Format/Info                      : Advanced Audio Codec
Format version                   : Version 4
Format profile                   : LC
Format settings, SBR             : No
Codec ID                         : 40
Duration                         : 1h 45mn
Bit rate mode                    : Variable
Bit rate                         : 160 Kbps
Maximum bit rate                 : 252 Kbps
Channel(s)                       : 2 channels
Channel positions                : Front: L R
Sampling rate                    : 48.0 KHz
Stream size                      : 120 MiB (17%)
Encoded date                     : UTC 2011-12-25 04:07:47
Tagged date                      : UTC 2011-12-25 04:16:10


TORRENT STATS.


[img]http://torrent-stats.info/543c/8d3f9468.png[/img][/b]